<svg width="20" height="22" viewBox="0 0 20 22" fill="none" xmlns="http://www.w3.org/2000/svg">
<path d="M16.6666 20.3333L16.1981 20.919C16.4233 21.0991 16.7317 21.1342 16.9915 21.0093C17.2514 20.8844 17.4166 20.6216 17.4166 20.3333H16.6666ZM16.6666 1.66667H17.4166V0.916671L16.6666 0.916671L16.6666 1.66667ZM3.33331 1.66666L3.33331 0.916656L2.58331 0.916656V1.66666H3.33331ZM3.33331 20.3333H2.58331C2.58331 20.6216 2.74857 20.8844 3.00842 21.0093C3.26827 21.1342 3.57671 21.0991 3.80183 20.919L3.33331 20.3333ZM9.99998 15L10.4685 14.4144C10.1946 14.1952 9.80537 14.1952 9.53146 14.4144L9.99998 15ZM17.4166 20.3333V1.66667H15.9166V20.3333H17.4166ZM2.58331 1.66666V20.3333H4.08331V1.66666H2.58331ZM3.80183 20.919L10.4685 15.5857L9.53146 14.4144L2.86479 19.7477L3.80183 20.919ZM9.53146 15.5857L16.1981 20.919L17.1352 19.7477L10.4685 14.4144L9.53146 15.5857ZM16.6666 0.916671L3.33331 0.916656L3.33331 2.41666L16.6666 2.41667L16.6666 0.916671Z" fill="#CBD5E1"/>
</svg>
