<svg width="22" height="22" viewBox="0 0 22 22" fill="none" xmlns="http://www.w3.org/2000/svg">
<path d="M16.3334 19L16.5686 18.2878L16.2415 18.1798L15.9465 18.3575L16.3334 19ZM19 16.3333L18.3683 15.9291L18.175 16.2311L18.2887 16.5711L19 16.3333ZM20.3334 20.3211L20.0981 21.0333C20.3677 21.1223 20.6643 21.0515 20.8647 20.8505C21.065 20.6494 21.1346 20.3525 21.0446 20.0833L20.3334 20.3211ZM15.9465 18.3575C14.6878 19.1153 12.6647 19.5711 11 19.5711V21.0711C12.858 21.0711 15.1682 20.5769 16.7202 19.6425L15.9465 18.3575ZM11 19.5711C6.2591 19.5711 2.41669 15.7306 2.41669 10.994H0.916687C0.916687 16.56 5.43161 21.0711 11 21.0711V19.5711ZM2.41669 10.994C2.41669 6.25733 6.25911 2.41666 11 2.41666V0.916656C5.43159 0.916656 0.916687 5.42799 0.916687 10.994H2.41669ZM11 2.41666C15.7409 2.41666 19.5834 6.25733 19.5834 10.994H21.0834C21.0834 5.42799 16.5684 0.916656 11 0.916656V2.41666ZM19.5834 10.994C19.5834 12.7592 19.1906 14.6438 18.3683 15.9291L19.6318 16.7375C20.6628 15.1261 21.0834 12.925 21.0834 10.994H19.5834ZM16.0981 19.7122L20.0981 21.0333L20.5686 19.609L16.5686 18.2878L16.0981 19.7122ZM21.0446 20.0833L19.7113 16.0955L18.2887 16.5711L19.6221 20.5589L21.0446 20.0833Z" fill="#CBD5E1"/>
</svg>
