<svg width="17" height="16" viewBox="0 0 17 16" fill="none" xmlns="http://www.w3.org/2000/svg">
<path d="M3.6853 4.125H5.5603C6.59584 4.125 7.4353 4.96447 7.4353 6C7.4353 7.03553 6.59584 7.875 5.5603 7.875C4.52477 7.875 3.6853 7.03553 3.6853 6V4.125Z" fill="white"/>
<path d="M3.6853 11C3.6853 9.96447 4.52477 9.125 5.5603 9.125C6.59584 9.125 7.4353 9.96447 7.4353 11C7.4353 12.0355 6.59584 12.875 5.5603 12.875H3.6853V11Z" fill="white"/>
<path d="M8.6853 6C8.6853 4.96447 9.52477 4.125 10.5603 4.125H12.4353V6C12.4353 7.03553 11.5958 7.875 10.5603 7.875C9.52477 7.875 8.6853 7.03553 8.6853 6Z" fill="white"/>
<path d="M8.6853 11C8.6853 9.96447 9.52477 9.125 10.5603 9.125C11.5958 9.125 12.4353 9.96447 12.4353 11V12.875H10.5603C9.52477 12.875 8.6853 12.0355 8.6853 11Z" fill="white"/>
</svg>
