<svg width="24" height="24" viewBox="0 0 24 24" fill="none" xmlns="http://www.w3.org/2000/svg">
<path d="M12.0368 0.130072V0.141895C12.0486 0.201008 12.0486 0.271944 12.0486 0.34288V8.86702C12.0368 8.91431 12.0013 8.92613 11.9658 8.94978C11.7176 9.068 11.4811 9.17441 11.2328 9.28081C10.89 9.43451 10.5353 9.60002 10.1924 9.75372L8.95105 10.3212C8.6082 10.4749 8.26534 10.6286 7.93431 10.7823C7.53234 10.9715 7.11854 11.1488 6.71657 11.338C6.37371 11.4916 6.03086 11.6572 5.67618 11.8109C5.39243 11.9409 5.10869 12.0591 4.83677 12.1892C4.81312 12.201 4.78948 12.2128 4.76583 12.2128C4.75401 12.2128 4.75401 12.2128 4.74219 12.201L5.0614 11.669C5.67618 10.6522 6.27913 9.64731 6.89391 8.63057C7.54416 7.54288 8.20623 6.4552 8.85647 5.36751C9.45943 4.36259 10.0742 3.35766 10.6772 2.35273C11.1146 1.61973 11.5639 0.886723 12.0013 0.153718C12.0131 0.130072 12.0249 0.11825 12.0249 0.0946045H12.0368C12.0249 0.106427 12.0368 0.11825 12.0368 0.130072Z" fill="#8A92B2"/>
<path d="M19.2955 12.201L19.3073 12.2128L17.5693 13.2414L12.1073 16.469C12.0836 16.4808 12.06 16.4926 12.0482 16.5045C12.0127 16.5045 12.0127 16.469 12.0127 16.4572V16.3508V9.04435C12.0127 9.00889 12.0127 8.96159 12.0245 8.92613C12.0363 8.87884 12.0718 8.89066 12.1073 8.90248C12.261 8.97342 12.4265 9.04435 12.5802 9.11529C13.0413 9.3281 13.5024 9.5409 13.9634 9.74189C14.3654 9.91923 14.7556 10.1084 15.1575 10.2857C15.5595 10.4631 15.9615 10.6522 16.3634 10.8296C16.7063 10.9833 17.061 11.1488 17.4038 11.3025C17.7467 11.4562 18.1014 11.6217 18.4442 11.7754C18.7161 11.8936 18.9881 12.0237 19.26 12.1419C19.26 12.1774 19.2718 12.1892 19.2955 12.201Z" fill="#454A75"/>
<path d="M12.0358 23.8464C12.0358 23.8582 12.024 23.87 12.024 23.8818H12.0121C12.0121 23.8582 11.9885 23.8464 11.9767 23.8227C11.2437 22.7941 10.5107 21.7537 9.77766 20.7252C9.03284 19.673 8.27619 18.6089 7.53136 17.5567C6.81018 16.5399 6.07717 15.5114 5.35599 14.4946C5.16683 14.2227 4.97766 13.9626 4.7885 13.6907C4.77668 13.667 4.76486 13.6552 4.74121 13.6198C4.77668 13.6198 4.80032 13.6434 4.81215 13.6552C5.84072 14.2582 6.85747 14.8611 7.88604 15.4641C9.0683 16.1616 10.2387 16.8592 11.421 17.5567L12.024 17.9114C12.0476 17.935 12.0476 17.9587 12.0476 17.9823V23.6808C12.0476 23.7399 12.0476 23.7991 12.0358 23.8464Z" fill="#8A92B2"/>
<path d="M4.72949 12.2247V12.2129C5.10782 12.0473 5.47432 11.87 5.85264 11.7045C6.33737 11.4798 6.8221 11.267 7.30683 11.0424C7.67333 10.8769 8.05166 10.6996 8.41816 10.534C8.962 10.2858 9.49402 10.0493 10.0379 9.80103C10.4044 9.63551 10.7709 9.47 11.1492 9.29266C11.4093 9.17443 11.6812 9.0562 11.9413 8.93798C11.965 8.92615 12.0004 8.91433 12.0123 8.89069C12.0241 8.89069 12.0241 8.90251 12.0123 8.91433V16.4217C12.0123 16.4572 12.0004 16.4927 12.0241 16.5163C12.0004 16.5518 11.9768 16.5163 11.965 16.5045C11.8586 16.4454 11.7522 16.3863 11.6457 16.3153C9.36397 14.9675 7.07038 13.6079 4.78861 12.2601C4.77678 12.2483 4.75314 12.2365 4.72949 12.2247Z" fill="#62688F"/>
<path d="M19.2717 13.6198H19.2835C19.2835 13.6434 19.2599 13.667 19.2481 13.6907C17.0727 16.7528 14.8973 19.8266 12.722 22.8887C12.4973 23.2079 12.2609 23.5271 12.0362 23.8464C12.0244 23.8345 12.0244 23.8227 12.0244 23.8109V23.74V18.006V17.8996C12.521 17.604 13.0057 17.3202 13.5022 17.0247C15.4175 15.8897 17.3328 14.7665 19.2362 13.6316C19.2481 13.6434 19.2599 13.6316 19.2717 13.6198Z" fill="#62688F"/>
<path d="M12.0236 8.91432V8.89068V8.81974V0.236488C12.0236 0.20102 12.0118 0.177375 12.0355 0.141907C14.4355 4.12614 16.8355 8.09856 19.2236 12.0828C19.2473 12.1183 19.2828 12.1656 19.2946 12.2128C19.1291 12.1537 18.9754 12.071 18.8217 12C18.6325 11.9173 18.4315 11.8227 18.2424 11.7399C18.1241 11.6808 17.9941 11.6335 17.8759 11.5744C17.6749 11.4798 17.4739 11.3971 17.2729 11.3025C17.1547 11.2552 17.0365 11.1961 16.9182 11.137L16.1379 10.7823C16.0079 10.7232 15.8778 10.6641 15.736 10.605L15.1685 10.3567C15.0502 10.3094 14.932 10.2503 14.8138 10.1912L14.0335 9.83649C13.9034 9.77738 13.7734 9.71826 13.6315 9.65915L13.064 9.41087C12.934 9.35176 12.8158 9.29265 12.6857 9.23353C12.4611 9.12713 12.2365 9.02073 12 8.92614C12.0355 8.91432 12.0236 8.91432 12.0236 8.91432Z" fill="#62688F"/>
</svg>
