<svg width="24" height="24" viewBox="0 0 24 24" fill="none" xmlns="http://www.w3.org/2000/svg">
<path d="M11.9996 14.4C12.6361 14.4 13.2466 14.1471 13.6967 13.697C14.1468 13.2469 14.3996 12.6365 14.3996 12C14.3996 11.3635 14.1468 10.753 13.6967 10.3029C13.2466 9.85283 12.6361 9.59998 11.9996 9.59998C11.3631 9.59998 10.7526 9.85283 10.3026 10.3029C9.85247 10.753 9.59961 11.3635 9.59961 12C9.59961 12.6365 9.85247 13.2469 10.3026 13.697C10.7526 14.1471 11.3631 14.4 11.9996 14.4Z" fill="#64748B"/>
<path fill-rule="evenodd" clip-rule="evenodd" d="M0.549805 12C2.0786 7.13158 6.6266 3.59998 12.0002 3.59998C17.3738 3.59998 21.9218 7.13158 23.4506 12C21.9218 16.8684 17.3738 20.4 12.0002 20.4C6.6266 20.4 2.0786 16.8684 0.549805 12ZM16.8002 12C16.8002 13.273 16.2945 14.4939 15.3943 15.3941C14.4941 16.2943 13.2732 16.8 12.0002 16.8C10.7272 16.8 9.50627 16.2943 8.60609 15.3941C7.70592 14.4939 7.2002 13.273 7.2002 12C7.2002 10.7269 7.70592 9.50604 8.60609 8.60586C9.50627 7.70569 10.7272 7.19998 12.0002 7.19998C13.2732 7.19998 14.4941 7.70569 15.3943 8.60586C16.2945 9.50604 16.8002 10.7269 16.8002 12Z" fill="#64748B"/>
</svg>
