<svg width="33" height="32" viewBox="0 0 33 32" fill="none" xmlns="http://www.w3.org/2000/svg">
<g clip-path="url(#clip0_147_26705)">
<path d="M33 16C33 7.16344 25.6127 0 16.5 0C7.3873 0 0 7.16344 0 16C0 23.9859 6.03378 30.6053 13.9219 31.8056V20.625H9.73242V16H13.9219V12.475C13.9219 8.465 16.3853 6.25 20.1542 6.25C21.9589 6.25 23.8477 6.5625 23.8477 6.5625V10.5H21.7671C19.7175 10.5 19.0781 11.7334 19.0781 13V16H23.6543L22.9228 20.625H19.0781V31.8056C26.9662 30.6053 33 23.9859 33 16Z" fill="#5B21B6"/>
<path d="M22.9228 20.625L23.6543 16H19.0781V13C19.0781 11.7347 19.7175 10.5 21.7671 10.5H23.8477V6.5625C23.8477 6.5625 21.9595 6.25 20.1542 6.25C16.3853 6.25 13.9219 8.465 13.9219 12.475V16H9.73242V20.625H13.9219V31.8056C15.6302 32.0648 17.3698 32.0648 19.0781 31.8056V20.625H22.9228Z" fill="white"/>
</g>
<defs>
<clipPath id="clip0_147_26705">
<rect width="33" height="32" fill="white"/>
</clipPath>
</defs>
</svg>
