<svg width="482" height="266" viewBox="0 0 482 266" fill="none" xmlns="http://www.w3.org/2000/svg">
<rect x="0.5" y="0.5" width="481" height="265" rx="9.5" fill="white" stroke="#5B21B6"/>
<path d="M251 118C248.239 118 246 120.239 246 123C246 125.761 248.239 128 251 128C253.761 128 256 125.761 256 123C256 120.239 253.761 118 251 118Z" fill="#5B21B6"/>
<path fill-rule="evenodd" clip-rule="evenodd" d="M216 113C216 110.239 218.239 108 221 108H261C263.761 108 266 110.239 266 113V153C266 153.345 265.965 153.682 265.898 154.008C265.8 154.489 265.632 154.946 265.406 155.366C264.562 156.934 262.905 158 261 158H221C218.239 158 216 155.761 216 153V113ZM232.164 118.474L231 117.31L219.333 128.976V113C219.333 112.08 220.08 111.333 221 111.333H261C261.92 111.333 262.667 112.08 262.667 113V141.333H255.024L232.179 118.488C232.174 118.483 232.169 118.479 232.164 118.474Z" fill="#5B21B6"/>
</svg>
