<svg width="33" height="32" viewBox="0 0 33 32" fill="none" xmlns="http://www.w3.org/2000/svg">
<g clip-path="url(#clip0_147_26703)">
<path d="M16.5 2.88125C20.9086 2.88125 21.4307 2.9 23.1645 2.975C24.7758 3.04375 25.6459 3.30625 26.226 3.525C26.993 3.8125 27.5473 4.1625 28.1209 4.71875C28.701 5.28125 29.0555 5.8125 29.352 6.55625C29.5775 7.11875 29.8482 7.96875 29.9191 9.525C29.9965 11.2125 30.0158 11.7188 30.0158 15.9875C30.0158 20.2625 29.9965 20.7688 29.9191 22.45C29.8482 24.0125 29.5775 24.8563 29.352 25.4188C29.0555 26.1625 28.6945 26.7 28.1209 27.2563C27.5408 27.8188 26.993 28.1625 26.226 28.45C25.6459 28.6688 24.7693 28.9313 23.1645 29C21.4242 29.075 20.9022 29.0938 16.5 29.0938C12.0914 29.0938 11.5693 29.075 9.83555 29C8.22422 28.9313 7.3541 28.6688 6.77402 28.45C6.00703 28.1625 5.45273 27.8125 4.8791 27.2563C4.29902 26.6938 3.94453 26.1625 3.64805 25.4188C3.42246 24.8563 3.15176 24.0063 3.08086 22.45C3.00352 20.7625 2.98418 20.2563 2.98418 15.9875C2.98418 11.7125 3.00352 11.2062 3.08086 9.525C3.15176 7.9625 3.42246 7.11875 3.64805 6.55625C3.94453 5.8125 4.30547 5.275 4.8791 4.71875C5.45918 4.15625 6.00703 3.8125 6.77402 3.525C7.3541 3.30625 8.23067 3.04375 9.83555 2.975C11.5693 2.9 12.0914 2.88125 16.5 2.88125ZM16.5 0C12.0205 0 11.4598 0.01875 9.7002 0.09375C7.94707 0.16875 6.7418 0.44375 5.69766 0.8375C4.6084 1.25 3.68672 1.79375 2.77148 2.6875C1.8498 3.575 1.28906 4.46875 0.863672 5.51875C0.457617 6.5375 0.174023 7.7 0.0966797 9.4C0.0193359 11.1125 0 11.6563 0 16C0 20.3438 0.0193359 20.8875 0.0966797 22.5938C0.174023 24.2938 0.457617 25.4625 0.863672 26.475C1.28906 27.5313 1.8498 28.425 2.77148 29.3125C3.68672 30.2 4.6084 30.75 5.69121 31.1563C6.7418 31.55 7.94063 31.825 9.69375 31.9C11.4533 31.975 12.0141 31.9937 16.4936 31.9937C20.973 31.9937 21.5338 31.975 23.2934 31.9C25.0465 31.825 26.2518 31.55 27.2959 31.1563C28.3787 30.75 29.3004 30.2 30.2156 29.3125C31.1309 28.425 31.698 27.5313 32.117 26.4813C32.523 25.4625 32.8066 24.3 32.884 22.6C32.9613 20.8938 32.9807 20.35 32.9807 16.0063C32.9807 11.6625 32.9613 11.1188 32.884 9.4125C32.8066 7.7125 32.523 6.54375 32.117 5.53125C31.7109 4.46875 31.1502 3.575 30.2285 2.6875C29.3133 1.8 28.3916 1.25 27.3088 0.84375C26.2582 0.45 25.0594 0.175 23.3063 0.1C21.5402 0.01875 20.9795 0 16.5 0Z" fill="#5B21B6"/>
<path d="M16.5 7.78125C11.8207 7.78125 8.02441 11.4625 8.02441 16C8.02441 20.5375 11.8207 24.2188 16.5 24.2188C21.1793 24.2188 24.9756 20.5375 24.9756 16C24.9756 11.4625 21.1793 7.78125 16.5 7.78125ZM16.5 21.3312C13.4643 21.3312 11.0021 18.9438 11.0021 16C11.0021 13.0563 13.4643 10.6687 16.5 10.6687C19.5357 10.6687 21.9979 13.0563 21.9979 16C21.9979 18.9438 19.5357 21.3312 16.5 21.3312Z" fill="#5B21B6"/>
<path d="M27.2895 7.45635C27.2895 8.51885 26.4 9.3751 25.3107 9.3751C24.215 9.3751 23.332 8.5126 23.332 7.45635C23.332 6.39385 24.2215 5.5376 25.3107 5.5376C26.4 5.5376 27.2895 6.4001 27.2895 7.45635Z" fill="#5B21B6"/>
</g>
<defs>
<clipPath id="clip0_147_26703">
<rect width="33" height="32" fill="white"/>
</clipPath>
</defs>
</svg>
