<svg width="32" height="32" viewBox="0 0 32 32" fill="none" xmlns="http://www.w3.org/2000/svg">
<rect width="32" height="32" rx="6" fill="white"/>
<path d="M13.3105 14.7633L15.9996 20.6267L19.9937 18.3564H20.0013V13.8134L13.3105 14.7633Z" fill="#2BBDF7"/>
<path d="M25.1605 10.4067L22.6681 9.48478L20.002 9.27026V13.8134V23.4256L24.0011 25.6984L27.1907 19.2988L25.1682 13.1417L25.1605 10.4067Z" fill="#2891F9"/>
<path d="M24.928 9.27026L24.001 11.5431V25.6627L28.0001 23.3899V9.27026H24.928Z" fill="#2BBDF7"/>
<path d="M24.0011 7L20.002 9.27027L24.0011 11.5431L28.0003 9.27027L24.0011 7Z" fill="#2B6DEF"/>
<path d="M16 16.0836L12.0009 11.6708L4 9.27026V23.3899L7.99915 25.6627L9.14578 17.8483L12.0009 18.3565L16 20.6267V16.0836Z" fill="#2891F9"/>
<path d="M7.99915 7L4 9.27027L16 16.0836L17.8132 15.057L20.0017 13.8134L7.99915 7Z" fill="#2B6DEF"/>
<path d="M7.99902 16.0836V25.6627L12.0007 23.3899V18.3564L7.99902 16.0836Z" fill="#2BBDF7"/>
</svg>
