<svg width="33" height="32" viewBox="0 0 33 32" fill="none" xmlns="http://www.w3.org/2000/svg">
<g clip-path="url(#clip0_147_26707)">
<path fill-rule="evenodd" clip-rule="evenodd" d="M7.43531 0H25.5647C29.6711 0 33 3.22802 33 7.21V24.79C33 28.772 29.6711 32 25.5647 32H7.43531C3.3289 32 0 28.772 0 24.79V7.21C0 3.22802 3.3289 0 7.43531 0ZM16.5034 26.18C17.6791 25.7 22.8353 22.57 25.1453 19.99C26.7334 18.29 27.5069 16.57 27.5069 14.66C27.5069 9.89 22.5672 6 16.5034 6C10.4294 6 5.5 9.89 5.5 14.66C5.5 18.94 9.40844 22.53 14.6988 23.2C15.0597 23.28 15.5444 23.43 15.6681 23.73C15.7816 24 15.7403 24.42 15.6991 24.7C15.6166 25.2 15.565 25.5033 15.5444 25.61L15.5384 25.6478C15.4905 25.9451 15.3787 26.6392 16.5034 26.18ZM20.5803 17.25H23.6741C23.7875 17.25 23.8803 17.16 23.8803 17.05V16.29C23.8803 16.18 23.7875 16.09 23.6741 16.09H21.5703V15.3H23.6741C23.7875 15.3 23.8803 15.21 23.8803 15.1V14.34C23.8803 14.23 23.7875 14.14 23.6741 14.14H21.5703V13.35H23.6741C23.7875 13.35 23.8803 13.26 23.8803 13.15V12.39C23.8803 12.28 23.7875 12.19 23.6741 12.19H20.5803C20.4669 12.19 20.3741 12.28 20.3741 12.39V17.04V17.05C20.3741 17.16 20.4669 17.25 20.5803 17.25ZM9.15407 17.25H9.14375C9.03031 17.25 8.9375 17.16 8.9375 17.05V17.04V12.39C8.9375 12.28 9.03031 12.19 9.14375 12.19H9.9275C10.0409 12.19 10.1338 12.28 10.1338 12.39V16.09H12.2375C12.3509 16.09 12.4438 16.18 12.4438 16.29V17.05C12.4438 17.16 12.3509 17.25 12.2375 17.25H9.15407ZM13.31 12.19H14.0938C14.2077 12.19 14.3 12.2795 14.3 12.39V17.05C14.3 17.1604 14.2077 17.25 14.0938 17.25H13.31C13.1961 17.25 13.1038 17.1604 13.1038 17.05V12.39C13.1038 12.2795 13.1961 12.19 13.31 12.19ZM19.6213 12.39V17.05C19.6213 17.16 19.5285 17.25 19.4047 17.25H18.6313C18.6106 17.25 18.5935 17.2466 18.5797 17.24H18.5591V17.23H18.5488H18.5385L18.5281 17.22C18.5213 17.22 18.5178 17.2166 18.5178 17.21H18.5075C18.4869 17.1966 18.4697 17.18 18.456 17.16L16.2594 14.28V17.05C16.2594 17.16 16.1666 17.25 16.0428 17.25H15.2694C15.156 17.25 15.0528 17.16 15.0528 17.05V12.39C15.0528 12.28 15.156 12.19 15.2694 12.19H16.0428H16.0531H16.0635H16.0738H16.0841H16.0944H16.1047C16.1047 12.1966 16.1081 12.2 16.115 12.2H16.1253L16.1356 12.21H16.1563V12.22C16.1631 12.22 16.1666 12.2233 16.1666 12.23H16.1769L16.1872 12.24L16.2078 12.26C16.2147 12.2666 16.2181 12.2733 16.2181 12.28L18.4147 15.15V12.39C18.4147 12.28 18.5178 12.19 18.6313 12.19H19.4047C19.5285 12.19 19.6213 12.28 19.6213 12.39Z" fill="#5B21B6"/>
</g>
<defs>
<clipPath id="clip0_147_26707">
<rect width="33" height="32" fill="white"/>
</clipPath>
</defs>
</svg>
