<svg width="15" height="16" viewBox="0 0 15 16" fill="none" xmlns="http://www.w3.org/2000/svg">
<path fill-rule="evenodd" clip-rule="evenodd" d="M6.5 3C6.5 2.44772 6.94772 2 7.5 2C8.05229 2 8.5 2.44772 8.5 3C8.5 3.55228 8.05229 4 7.5 4C6.94772 4 6.5 3.55228 6.5 3ZM6.5 8C6.5 7.44772 6.94772 7 7.5 7C8.05228 7 8.5 7.44772 8.5 8C8.5 8.55228 8.05228 9 7.5 9C6.94772 9 6.5 8.55228 6.5 8ZM6.5 13C6.5 12.4477 6.94772 12 7.5 12C8.05228 12 8.5 12.4477 8.5 13C8.5 13.5523 8.05228 14 7.5 14C6.94772 14 6.5 13.5523 6.5 13Z" fill="#0F172A"/>
</svg>
