<svg width="24" height="24" viewBox="0 0 24 24" fill="none" xmlns="http://www.w3.org/2000/svg">
<g clip-path="url(#clip0_967_32314)">
<path d="M12.0004 10.8679C15.0015 10.8679 17.4343 8.43506 17.4343 5.43396C17.4343 2.43287 15.0015 0 12.0004 0C8.99927 0 6.56641 2.43287 6.56641 5.43396C6.56641 8.43506 8.99927 10.8679 12.0004 10.8679Z" fill="#88BDF3"/>
<path d="M12.0004 24C15.0015 24 17.4343 21.5671 17.4343 18.566C17.4343 15.5649 15.0015 13.1321 12.0004 13.1321C8.99927 13.1321 6.56641 15.5649 6.56641 18.566C6.56641 21.5671 8.99927 24 12.0004 24Z" fill="#3075EE"/>
<path d="M18.5658 17.434C21.5669 17.434 23.9998 15.0011 23.9998 12C23.9998 8.99891 21.5669 6.56604 18.5658 6.56604C15.5647 6.56604 13.1318 8.99891 13.1318 12C13.1318 15.0011 15.5647 17.434 18.5658 17.434Z" fill="#5795F1"/>
<path d="M5.43396 17.434C8.43506 17.434 10.8679 15.0011 10.8679 12C10.8679 8.99891 8.43506 6.56604 5.43396 6.56604C2.43287 6.56604 0 8.99891 0 12C0 15.0011 2.43287 17.434 5.43396 17.434Z" fill="#205FEC"/>
<path d="M10.7208 10.7207C9.75228 10.4852 8.86716 9.98782 8.16233 9.28299C7.4575 8.57816 6.96012 7.69305 6.72461 6.72449C7.69145 6.96358 8.57466 7.46215 9.27891 8.16641C9.98317 8.87067 10.4817 9.75387 10.7208 10.7207Z" fill="#134BEF"/>
<path d="M6.71289 17.2868C6.9484 16.3182 7.44578 15.4331 8.15061 14.7283C8.85544 14.0234 9.74055 13.526 10.7091 13.2905C10.47 14.2574 9.97145 15.1406 9.26719 15.8448C8.56293 16.5491 7.67973 17.0477 6.71289 17.2868Z" fill="#0932E8"/>
<path d="M13.2793 13.2792C14.2479 13.5147 15.133 14.0121 15.8378 14.717C16.5426 15.4218 17.04 16.3069 17.2755 17.2755C16.3087 17.0364 15.4255 16.5378 14.7212 15.8335C14.017 15.1293 13.5184 14.2461 13.2793 13.2792Z" fill="#164BEA"/>
<path d="M17.2872 6.7132C17.0517 7.68175 16.5544 8.56687 15.8495 9.2717C15.1447 9.97653 14.2596 10.4739 13.291 10.7094C13.5301 9.74257 14.0287 8.85937 14.7329 8.15512C15.4372 7.45086 16.3204 6.95229 17.2872 6.7132Z" fill="#3170F1"/>
</g>
<defs>
<clipPath id="clip0_967_32314">
<rect width="24" height="24" fill="white"/>
</clipPath>
</defs>
</svg>
