<svg width="15" height="15" viewBox="0 0 15 15" fill="none" xmlns="http://www.w3.org/2000/svg">
<path d="M9.10162 0.932576L9.10191 0.934042L9.10248 0.9369L9.10275 0.938251L9.37169 2.27368L9.42244 2.52564L9.65687 2.63101C10.005 2.78751 10.3305 2.9824 10.6341 3.2054L10.8444 3.35984L11.0914 3.27568L12.4305 2.81931L12.8376 2.69074L13.0536 3.06816L13.0535 3.06817L13.0562 3.0727L14.142 4.92466L14.3644 5.31332L14.0368 5.6044L13.0307 6.47672L12.8203 6.65917L12.8646 6.93413C12.895 7.12215 12.9192 7.31254 12.9192 7.49997C12.9192 7.68741 12.895 7.87783 12.8646 8.06588L12.8203 8.34082L13.0307 8.52327L14.0413 9.39954L14.3644 9.68666L14.1393 10.0799L13.0563 11.9271L13.0563 11.9271L13.0534 11.9321L12.8376 12.3102L12.4207 12.1775L11.0914 11.7243L10.8444 11.6401L10.6341 11.7946C10.3305 12.0176 10.005 12.2124 9.65688 12.3689L9.42244 12.4743L9.37169 12.7263L9.10275 14.0617L9.10249 14.063L9.10192 14.0659L9.10162 14.0674L9.01709 14.5H5.98103L5.89731 14.0666L5.89733 14.0666L5.89648 14.0624L5.62654 12.7261L5.57569 12.4743L5.3414 12.369C4.99318 12.2125 4.6677 12.0176 4.36401 11.7946L4.15372 11.6402L3.90676 11.7243L2.56813 12.1805L2.16054 12.3102L1.94594 11.9326L1.94598 11.9325L1.94246 11.9266L0.855835 10.0748L0.634724 9.68669L0.961621 9.39535L1.96779 8.52297L2.17819 8.34055L2.13387 8.06563C2.10351 7.87729 2.07887 7.6864 2.07887 7.49997C2.07887 7.31355 2.10351 7.12269 2.13387 6.93438L2.17819 6.65946L1.9678 6.47704L0.956601 5.60024L0.634728 5.31335L0.859063 4.91953L1.94259 3.07323L1.94263 3.07325L1.94581 3.06767L2.16052 2.6908L2.57793 2.82268L3.90672 3.27566L4.1537 3.35986L4.36401 3.2054C4.66771 2.98237 4.99319 2.78745 5.34141 2.63094L5.57569 2.52565L5.62654 2.27388L5.89649 0.937473L5.89651 0.937477L5.89731 0.933324L5.98103 0.5H9.01709L9.10162 0.932576ZM6.52639 7.50003C6.52639 6.94011 6.97072 6.50046 7.49895 6.50046C8.02718 6.50046 8.47151 6.94011 8.47151 7.50003C8.47151 8.05999 8.02714 8.49966 7.49895 8.49966C6.97076 8.49966 6.52639 8.05999 6.52639 7.50003ZM7.49895 4.49986C5.85962 4.49986 4.54468 5.852 4.54468 7.50003C4.54468 9.14802 5.85958 10.5003 7.49895 10.5003C9.13832 10.5003 10.4532 9.14802 10.4532 7.50003C10.4532 5.852 9.13828 4.49986 7.49895 4.49986Z" fill="#F5F3FF" stroke="#5B21B6" stroke-linecap="square"/>
</svg>
