<svg width="23" height="23" viewBox="0 0 23 23" fill="none" xmlns="http://www.w3.org/2000/svg">
<path d="M12.1875 1.19403C12.0584 0.93234 11.7918 0.766663 11.5 0.766663C11.2082 0.766663 10.9417 0.93234 10.8125 1.19403L7.67397 7.55351L0.656511 8.57257C0.367703 8.61451 0.127752 8.81678 0.0375566 9.09433C-0.052639 9.37188 0.0225647 9.67657 0.231545 9.88028L5.30958 14.8302L4.11049 21.8203C4.06115 22.1079 4.17939 22.3986 4.41549 22.5701C4.65158 22.7417 4.96459 22.7643 5.2229 22.6285L11.5 19.3282L17.7771 22.6285C18.0355 22.7643 18.3485 22.7417 18.5846 22.5701C18.8207 22.3986 18.9389 22.1079 18.8896 21.8203L17.6905 14.8302L22.7685 9.88028C22.9775 9.67657 23.0527 9.37188 22.9625 9.09433C22.8723 8.81678 22.6323 8.61451 22.3435 8.57257L15.3261 7.55351L12.1875 1.19403Z" fill="#5B21B6"/>
</svg>
