<svg width="33" height="33" viewBox="0 0 33 33" fill="none" xmlns="http://www.w3.org/2000/svg">
<path d="M10.3778 29.9072C22.8307 29.9072 29.6419 19.5901 29.6419 10.6432C29.6419 10.3501 29.6419 10.0584 29.6221 9.768C30.9472 8.80956 32.091 7.62284 33 6.26339C31.7644 6.8112 30.4535 7.17028 29.1113 7.32863C30.5247 6.48258 31.5826 5.15171 32.0879 3.58379C30.7589 4.37251 29.3049 4.92831 27.7886 5.22719C26.7678 4.14174 25.4177 3.42298 23.9473 3.18214C22.4768 2.94129 20.968 3.1918 19.6542 3.89489C18.3405 4.59798 17.2951 5.71446 16.6798 7.07155C16.0645 8.42864 15.9136 9.95068 16.2505 11.4022C13.5587 11.2671 10.9254 10.5676 8.5215 9.3489C6.11759 8.13023 3.9968 6.41968 2.2968 4.32827C1.431 5.81877 1.16582 7.58321 1.55526 9.26235C1.9447 10.9415 2.95947 12.4091 4.39296 13.3663C3.31544 13.3347 2.26139 13.0441 1.32 12.5189V12.6047C1.32043 14.1678 1.86155 15.6827 2.85157 16.8924C3.8416 18.1021 5.21958 18.9321 6.7518 19.2416C5.75504 19.5135 4.7092 19.5533 3.69468 19.3578C4.1275 20.703 4.96984 21.8793 6.10395 22.7223C7.23807 23.5653 8.60726 24.0329 10.0201 24.0596C8.61635 25.163 7.00881 25.9788 5.28945 26.4604C3.5701 26.9419 1.77267 27.0797 0 26.866C3.09627 28.8529 6.6989 29.9068 10.3778 29.902" fill="#5B21B6"/>
</svg>
