<svg width="23" height="23" viewBox="0 0 23 23" fill="none" xmlns="http://www.w3.org/2000/svg">
<path d="M7.5 5.25C7.5 3.17893 9.17893 1.5 11.25 1.5C13.3211 1.5 15 3.17893 15 5.25V6H16.5V5.25C16.5 2.35051 14.1495 0 11.25 0C8.3505 0 6 2.35051 6 5.25V9H3.75C2.50736 9 1.5 10.0074 1.5 11.25V20.25C1.5 21.4926 2.50736 22.5 3.75 22.5H18.75C19.9926 22.5 21 21.4926 21 20.25V11.25C21 10.0074 19.9926 9 18.75 9H7.5V5.25Z" fill="#5B21B6"/>
<ellipse cx="11.25" cy="15.75" rx="2.25" ry="2.25" fill="white"/>
</svg>
