<svg width="31" height="30" viewBox="0 0 31 30" fill="none" xmlns="http://www.w3.org/2000/svg">
<rect x="7.75269" y="9.375" width="15.0502" height="10.3125" fill="white"/>
<path d="M27.2687 13.4233L25.563 11.4482C25.2369 11.0732 24.9736 10.3732 24.9736 9.87324V7.74824C24.9736 6.42324 23.8824 5.33574 22.553 5.33574H20.4209C19.9318 5.33574 19.2169 5.07324 18.8406 4.74824L16.859 3.04824C15.9936 2.31074 14.5764 2.31074 13.6985 3.04824L11.7294 4.76074C11.3531 5.07324 10.6382 5.33574 10.1491 5.33574H7.97937C6.64994 5.33574 5.5588 6.42324 5.5588 7.74824V9.88574C5.5588 10.3732 5.29542 11.0732 4.98188 11.4482L3.28873 13.4358C2.56131 14.2983 2.56131 15.6983 3.28873 16.5608L4.98188 18.5483C5.29542 18.9233 5.5588 19.6233 5.5588 20.1108V22.2483C5.5588 23.5733 6.64994 24.6608 7.97937 24.6608H10.1491C10.6382 24.6608 11.3531 24.9233 11.7294 25.2483L13.711 26.9483C14.5764 27.6858 15.9936 27.6858 16.8716 26.9483L18.8532 25.2483C19.2294 24.9233 19.9318 24.6608 20.4334 24.6608H22.5655C23.895 24.6608 24.9861 23.5733 24.9861 22.2483V20.1233C24.9861 19.6358 25.2495 18.9233 25.5756 18.5483L27.2813 16.5733C28.0087 15.7108 28.0087 14.2858 27.2687 13.4233ZM20.4961 12.6358L14.4384 18.6733C14.2629 18.8483 14.0246 18.9483 13.7737 18.9483C13.5229 18.9483 13.2846 18.8483 13.109 18.6733L10.0738 15.6483C9.71014 15.2858 9.71014 14.6858 10.0738 14.3233C10.4376 13.9608 11.0396 13.9608 11.4033 14.3233L13.7737 16.6858L19.1667 11.3107C19.5304 10.9482 20.1324 10.9482 20.4961 11.3107C20.8598 11.6732 20.8598 12.2732 20.4961 12.6358Z" fill="#5B21B6"/>
</svg>
