<svg width="33" height="33" viewBox="0 0 33 33" fill="none" xmlns="http://www.w3.org/2000/svg">
<g clip-path="url(#clip0_147_26704)">
<path d="M32.3427 8.505C32.1561 7.80294 31.7885 7.1622 31.2764 6.6469C30.7644 6.1316 30.1261 5.75981 29.4252 5.56875C26.8452 4.875 16.5327 4.875 16.5327 4.875C16.5327 4.875 6.22022 4.875 3.64022 5.56875C2.93937 5.75981 2.301 6.1316 1.78899 6.6469C1.27697 7.1622 0.909285 7.80294 0.722715 8.505C0.0327149 11.0962 0.0327148 16.5 0.0327148 16.5C0.0327148 16.5 0.0327149 21.9037 0.722715 24.495C0.909285 25.1971 1.27697 25.8378 1.78899 26.3531C2.301 26.8684 2.93937 27.2402 3.64022 27.4312C6.22022 28.125 16.5327 28.125 16.5327 28.125C16.5327 28.125 26.8452 28.125 29.4252 27.4312C30.1261 27.2402 30.7644 26.8684 31.2764 26.3531C31.7885 25.8378 32.1561 25.1971 32.3427 24.495C33.0327 21.9037 33.0327 16.5 33.0327 16.5C33.0327 16.5 33.0327 11.0962 32.3427 8.505Z" fill="#5B21B6"/>
<path d="M13.1577 21.407V11.5933L21.7827 16.5001L13.1577 21.407Z" fill="white"/>
</g>
<defs>
<clipPath id="clip0_147_26704">
<rect width="33" height="33" fill="white"/>
</clipPath>
</defs>
</svg>
